<mxfile host="app.diagrams.net" modified="2023-05-16T23:22:27.024Z" agent="Mozilla/5.0 (X11; Linux x86_64) AppleWebKit/537.36 (KHTML, like Gecko) Chrome/113.0.0.0 Safari/537.36" etag="zbEE3Z7-0S9C37YLpseS" version="21.3.2" type="device">
  <diagram id="vDqjUoAuHQiaoz7LTiOU" name="AlmacénMary">
    <mxGraphModel dx="1914" dy="1030" grid="1" gridSize="10" guides="1" tooltips="1" connect="1" arrows="1" fold="1" page="1" pageScale="1" pageWidth="827" pageHeight="1169" math="0" shadow="0">
      <root>
        <mxCell id="0" />
        <mxCell id="1" parent="0" />
        <mxCell id="Y9Ebi7SMnBBEPp_Op19L-8" value="Producto" style="shape=table;startSize=30;container=1;collapsible=1;childLayout=tableLayout;fixedRows=1;rowLines=0;fontStyle=1;align=center;resizeLast=1;html=1;whiteSpace=wrap;" parent="1" vertex="1">
          <mxGeometry x="1559.94" y="420" width="180" height="150" as="geometry" />
        </mxCell>
        <mxCell id="Y9Ebi7SMnBBEPp_Op19L-12" value="" style="shape=tableRow;horizontal=0;startSize=0;swimlaneHead=0;swimlaneBody=0;fillColor=none;collapsible=0;dropTarget=0;points=[[0,0.5],[1,0.5]];portConstraint=eastwest;top=0;left=0;right=0;bottom=1;html=1;" parent="Y9Ebi7SMnBBEPp_Op19L-8" vertex="1">
          <mxGeometry y="30" width="180" height="30" as="geometry" />
        </mxCell>
        <mxCell id="Y9Ebi7SMnBBEPp_Op19L-13" value="PK" style="shape=partialRectangle;connectable=0;fillColor=none;top=0;left=0;bottom=0;right=0;fontStyle=1;overflow=hidden;html=1;whiteSpace=wrap;" parent="Y9Ebi7SMnBBEPp_Op19L-12" vertex="1">
          <mxGeometry width="60" height="30" as="geometry">
            <mxRectangle width="60" height="30" as="alternateBounds" />
          </mxGeometry>
        </mxCell>
        <mxCell id="Y9Ebi7SMnBBEPp_Op19L-14" value="CódigoProducto" style="shape=partialRectangle;connectable=0;fillColor=none;top=0;left=0;bottom=0;right=0;align=left;spacingLeft=6;fontStyle=5;overflow=hidden;html=1;whiteSpace=wrap;" parent="Y9Ebi7SMnBBEPp_Op19L-12" vertex="1">
          <mxGeometry x="60" width="120" height="30" as="geometry">
            <mxRectangle width="120" height="30" as="alternateBounds" />
          </mxGeometry>
        </mxCell>
        <mxCell id="Y9Ebi7SMnBBEPp_Op19L-15" value="" style="shape=tableRow;horizontal=0;startSize=0;swimlaneHead=0;swimlaneBody=0;fillColor=none;collapsible=0;dropTarget=0;points=[[0,0.5],[1,0.5]];portConstraint=eastwest;top=0;left=0;right=0;bottom=0;html=1;" parent="Y9Ebi7SMnBBEPp_Op19L-8" vertex="1">
          <mxGeometry y="60" width="180" height="30" as="geometry" />
        </mxCell>
        <mxCell id="Y9Ebi7SMnBBEPp_Op19L-16" value="" style="shape=partialRectangle;connectable=0;fillColor=none;top=0;left=0;bottom=0;right=0;editable=1;overflow=hidden;html=1;whiteSpace=wrap;" parent="Y9Ebi7SMnBBEPp_Op19L-15" vertex="1">
          <mxGeometry width="60" height="30" as="geometry">
            <mxRectangle width="60" height="30" as="alternateBounds" />
          </mxGeometry>
        </mxCell>
        <mxCell id="Y9Ebi7SMnBBEPp_Op19L-17" value="&lt;div&gt;NombreProducto&lt;/div&gt;" style="shape=partialRectangle;connectable=0;fillColor=none;top=0;left=0;bottom=0;right=0;align=left;spacingLeft=6;overflow=hidden;html=1;whiteSpace=wrap;" parent="Y9Ebi7SMnBBEPp_Op19L-15" vertex="1">
          <mxGeometry x="60" width="120" height="30" as="geometry">
            <mxRectangle width="120" height="30" as="alternateBounds" />
          </mxGeometry>
        </mxCell>
        <mxCell id="Y9Ebi7SMnBBEPp_Op19L-18" value="" style="shape=tableRow;horizontal=0;startSize=0;swimlaneHead=0;swimlaneBody=0;fillColor=none;collapsible=0;dropTarget=0;points=[[0,0.5],[1,0.5]];portConstraint=eastwest;top=0;left=0;right=0;bottom=0;html=1;" parent="Y9Ebi7SMnBBEPp_Op19L-8" vertex="1">
          <mxGeometry y="90" width="180" height="30" as="geometry" />
        </mxCell>
        <mxCell id="Y9Ebi7SMnBBEPp_Op19L-19" value="" style="shape=partialRectangle;connectable=0;fillColor=none;top=0;left=0;bottom=0;right=0;editable=1;overflow=hidden;html=1;whiteSpace=wrap;" parent="Y9Ebi7SMnBBEPp_Op19L-18" vertex="1">
          <mxGeometry width="60" height="30" as="geometry">
            <mxRectangle width="60" height="30" as="alternateBounds" />
          </mxGeometry>
        </mxCell>
        <mxCell id="Y9Ebi7SMnBBEPp_Op19L-20" value="DetalleProducto" style="shape=partialRectangle;connectable=0;fillColor=none;top=0;left=0;bottom=0;right=0;align=left;spacingLeft=6;overflow=hidden;html=1;whiteSpace=wrap;" parent="Y9Ebi7SMnBBEPp_Op19L-18" vertex="1">
          <mxGeometry x="60" width="120" height="30" as="geometry">
            <mxRectangle width="120" height="30" as="alternateBounds" />
          </mxGeometry>
        </mxCell>
        <mxCell id="Y9Ebi7SMnBBEPp_Op19L-21" value="" style="shape=tableRow;horizontal=0;startSize=0;swimlaneHead=0;swimlaneBody=0;fillColor=none;collapsible=0;dropTarget=0;points=[[0,0.5],[1,0.5]];portConstraint=eastwest;top=0;left=0;right=0;bottom=0;html=1;" parent="Y9Ebi7SMnBBEPp_Op19L-8" vertex="1">
          <mxGeometry y="120" width="180" height="30" as="geometry" />
        </mxCell>
        <mxCell id="Y9Ebi7SMnBBEPp_Op19L-22" value="" style="shape=partialRectangle;connectable=0;fillColor=none;top=0;left=0;bottom=0;right=0;editable=1;overflow=hidden;html=1;whiteSpace=wrap;" parent="Y9Ebi7SMnBBEPp_Op19L-21" vertex="1">
          <mxGeometry width="60" height="30" as="geometry">
            <mxRectangle width="60" height="30" as="alternateBounds" />
          </mxGeometry>
        </mxCell>
        <mxCell id="Y9Ebi7SMnBBEPp_Op19L-23" value="PrecioUnitario" style="shape=partialRectangle;connectable=0;fillColor=none;top=0;left=0;bottom=0;right=0;align=left;spacingLeft=6;overflow=hidden;html=1;whiteSpace=wrap;" parent="Y9Ebi7SMnBBEPp_Op19L-21" vertex="1">
          <mxGeometry x="60" width="120" height="30" as="geometry">
            <mxRectangle width="120" height="30" as="alternateBounds" />
          </mxGeometry>
        </mxCell>
        <mxCell id="Y9Ebi7SMnBBEPp_Op19L-26" value="Aplicación" style="shape=table;startSize=30;container=1;collapsible=1;childLayout=tableLayout;fixedRows=1;rowLines=0;fontStyle=1;align=center;resizeLast=1;html=1;whiteSpace=wrap;" parent="1" vertex="1">
          <mxGeometry x="1559.94" y="605" width="180" height="150" as="geometry" />
        </mxCell>
        <mxCell id="Y9Ebi7SMnBBEPp_Op19L-45" value="" style="shape=tableRow;horizontal=0;startSize=0;swimlaneHead=0;swimlaneBody=0;fillColor=none;collapsible=0;dropTarget=0;points=[[0,0.5],[1,0.5]];portConstraint=eastwest;top=0;left=0;right=0;bottom=0;html=1;" parent="Y9Ebi7SMnBBEPp_Op19L-26" vertex="1">
          <mxGeometry y="30" width="180" height="30" as="geometry" />
        </mxCell>
        <mxCell id="Y9Ebi7SMnBBEPp_Op19L-46" value="FK" style="shape=partialRectangle;connectable=0;fillColor=none;top=0;left=0;bottom=0;right=0;fontStyle=1;overflow=hidden;html=1;whiteSpace=wrap;" parent="Y9Ebi7SMnBBEPp_Op19L-45" vertex="1">
          <mxGeometry width="60.00000000000023" height="30" as="geometry">
            <mxRectangle width="60.00000000000023" height="30" as="alternateBounds" />
          </mxGeometry>
        </mxCell>
        <mxCell id="Y9Ebi7SMnBBEPp_Op19L-47" value="&amp;nbsp;ID_Factura" style="shape=partialRectangle;connectable=0;fillColor=none;top=0;left=0;bottom=0;right=0;align=left;spacingLeft=6;fontStyle=5;overflow=hidden;html=1;whiteSpace=wrap;" parent="Y9Ebi7SMnBBEPp_Op19L-45" vertex="1">
          <mxGeometry x="60.00000000000023" width="119.99999999999977" height="30" as="geometry">
            <mxRectangle width="119.99999999999977" height="30" as="alternateBounds" />
          </mxGeometry>
        </mxCell>
        <mxCell id="Y9Ebi7SMnBBEPp_Op19L-48" value="" style="shape=tableRow;horizontal=0;startSize=0;swimlaneHead=0;swimlaneBody=0;fillColor=none;collapsible=0;dropTarget=0;points=[[0,0.5],[1,0.5]];portConstraint=eastwest;top=0;left=0;right=0;bottom=0;html=1;" parent="Y9Ebi7SMnBBEPp_Op19L-26" vertex="1">
          <mxGeometry y="60" width="180" height="30" as="geometry" />
        </mxCell>
        <mxCell id="Y9Ebi7SMnBBEPp_Op19L-49" value="FK" style="shape=partialRectangle;connectable=0;fillColor=none;top=0;left=0;bottom=0;right=0;fontStyle=1;overflow=hidden;html=1;whiteSpace=wrap;" parent="Y9Ebi7SMnBBEPp_Op19L-48" vertex="1">
          <mxGeometry width="60.00000000000023" height="30" as="geometry">
            <mxRectangle width="60.00000000000023" height="30" as="alternateBounds" />
          </mxGeometry>
        </mxCell>
        <mxCell id="Y9Ebi7SMnBBEPp_Op19L-50" value="CódigoProducto" style="shape=partialRectangle;connectable=0;fillColor=none;top=0;left=0;bottom=0;right=0;align=left;spacingLeft=6;fontStyle=5;overflow=hidden;html=1;whiteSpace=wrap;" parent="Y9Ebi7SMnBBEPp_Op19L-48" vertex="1">
          <mxGeometry x="60.00000000000023" width="119.99999999999977" height="30" as="geometry">
            <mxRectangle width="119.99999999999977" height="30" as="alternateBounds" />
          </mxGeometry>
        </mxCell>
        <mxCell id="Y9Ebi7SMnBBEPp_Op19L-51" value="" style="shape=tableRow;horizontal=0;startSize=0;swimlaneHead=0;swimlaneBody=0;fillColor=none;collapsible=0;dropTarget=0;points=[[0,0.5],[1,0.5]];portConstraint=eastwest;top=0;left=0;right=0;bottom=0;html=1;" parent="Y9Ebi7SMnBBEPp_Op19L-26" vertex="1">
          <mxGeometry y="90" width="180" height="30" as="geometry" />
        </mxCell>
        <mxCell id="Y9Ebi7SMnBBEPp_Op19L-52" value="FK" style="shape=partialRectangle;connectable=0;fillColor=none;top=0;left=0;bottom=0;right=0;fontStyle=1;overflow=hidden;html=1;whiteSpace=wrap;" parent="Y9Ebi7SMnBBEPp_Op19L-51" vertex="1">
          <mxGeometry width="60.00000000000023" height="30" as="geometry">
            <mxRectangle width="60.00000000000023" height="30" as="alternateBounds" />
          </mxGeometry>
        </mxCell>
        <mxCell id="Y9Ebi7SMnBBEPp_Op19L-53" value="ID_Usuario" style="shape=partialRectangle;connectable=0;fillColor=none;top=0;left=0;bottom=0;right=0;align=left;spacingLeft=6;fontStyle=5;overflow=hidden;html=1;whiteSpace=wrap;" parent="Y9Ebi7SMnBBEPp_Op19L-51" vertex="1">
          <mxGeometry x="60.00000000000023" width="119.99999999999977" height="30" as="geometry">
            <mxRectangle width="119.99999999999977" height="30" as="alternateBounds" />
          </mxGeometry>
        </mxCell>
        <mxCell id="ylq0Wh5do1DhNVSN07a9-4" value="" style="shape=tableRow;horizontal=0;startSize=0;swimlaneHead=0;swimlaneBody=0;fillColor=none;collapsible=0;dropTarget=0;points=[[0,0.5],[1,0.5]];portConstraint=eastwest;top=0;left=0;right=0;bottom=0;html=1;" parent="Y9Ebi7SMnBBEPp_Op19L-26" vertex="1">
          <mxGeometry y="120" width="180" height="30" as="geometry" />
        </mxCell>
        <mxCell id="ylq0Wh5do1DhNVSN07a9-5" value="FK" style="shape=partialRectangle;connectable=0;fillColor=none;top=0;left=0;bottom=0;right=0;fontStyle=1;overflow=hidden;html=1;whiteSpace=wrap;" parent="ylq0Wh5do1DhNVSN07a9-4" vertex="1">
          <mxGeometry width="60.00000000000023" height="30" as="geometry">
            <mxRectangle width="60.00000000000023" height="30" as="alternateBounds" />
          </mxGeometry>
        </mxCell>
        <mxCell id="ylq0Wh5do1DhNVSN07a9-6" value="ID_ControlStock" style="shape=partialRectangle;connectable=0;fillColor=none;top=0;left=0;bottom=0;right=0;align=left;spacingLeft=6;fontStyle=5;overflow=hidden;html=1;whiteSpace=wrap;" parent="ylq0Wh5do1DhNVSN07a9-4" vertex="1">
          <mxGeometry x="60.00000000000023" width="119.99999999999977" height="30" as="geometry">
            <mxRectangle width="119.99999999999977" height="30" as="alternateBounds" />
          </mxGeometry>
        </mxCell>
        <mxCell id="Y9Ebi7SMnBBEPp_Op19L-54" value="Usuario" style="shape=table;startSize=30;container=1;collapsible=1;childLayout=tableLayout;fixedRows=1;rowLines=0;fontStyle=1;align=center;resizeLast=1;html=1;whiteSpace=wrap;" parent="1" vertex="1">
          <mxGeometry x="1559.94" y="770" width="180" height="150" as="geometry" />
        </mxCell>
        <mxCell id="Y9Ebi7SMnBBEPp_Op19L-58" value="" style="shape=tableRow;horizontal=0;startSize=0;swimlaneHead=0;swimlaneBody=0;fillColor=none;collapsible=0;dropTarget=0;points=[[0,0.5],[1,0.5]];portConstraint=eastwest;top=0;left=0;right=0;bottom=1;html=1;" parent="Y9Ebi7SMnBBEPp_Op19L-54" vertex="1">
          <mxGeometry y="30" width="180" height="30" as="geometry" />
        </mxCell>
        <mxCell id="Y9Ebi7SMnBBEPp_Op19L-59" value="PK" style="shape=partialRectangle;connectable=0;fillColor=none;top=0;left=0;bottom=0;right=0;fontStyle=1;overflow=hidden;html=1;whiteSpace=wrap;" parent="Y9Ebi7SMnBBEPp_Op19L-58" vertex="1">
          <mxGeometry width="60" height="30" as="geometry">
            <mxRectangle width="60" height="30" as="alternateBounds" />
          </mxGeometry>
        </mxCell>
        <mxCell id="Y9Ebi7SMnBBEPp_Op19L-60" value="ID_Usuario" style="shape=partialRectangle;connectable=0;fillColor=none;top=0;left=0;bottom=0;right=0;align=left;spacingLeft=6;fontStyle=5;overflow=hidden;html=1;whiteSpace=wrap;" parent="Y9Ebi7SMnBBEPp_Op19L-58" vertex="1">
          <mxGeometry x="60" width="120" height="30" as="geometry">
            <mxRectangle width="120" height="30" as="alternateBounds" />
          </mxGeometry>
        </mxCell>
        <mxCell id="Y9Ebi7SMnBBEPp_Op19L-61" value="" style="shape=tableRow;horizontal=0;startSize=0;swimlaneHead=0;swimlaneBody=0;fillColor=none;collapsible=0;dropTarget=0;points=[[0,0.5],[1,0.5]];portConstraint=eastwest;top=0;left=0;right=0;bottom=0;html=1;" parent="Y9Ebi7SMnBBEPp_Op19L-54" vertex="1">
          <mxGeometry y="60" width="180" height="30" as="geometry" />
        </mxCell>
        <mxCell id="Y9Ebi7SMnBBEPp_Op19L-62" value="" style="shape=partialRectangle;connectable=0;fillColor=none;top=0;left=0;bottom=0;right=0;editable=1;overflow=hidden;html=1;whiteSpace=wrap;" parent="Y9Ebi7SMnBBEPp_Op19L-61" vertex="1">
          <mxGeometry width="60" height="30" as="geometry">
            <mxRectangle width="60" height="30" as="alternateBounds" />
          </mxGeometry>
        </mxCell>
        <mxCell id="Y9Ebi7SMnBBEPp_Op19L-63" value="NombreUsuario" style="shape=partialRectangle;connectable=0;fillColor=none;top=0;left=0;bottom=0;right=0;align=left;spacingLeft=6;overflow=hidden;html=1;whiteSpace=wrap;" parent="Y9Ebi7SMnBBEPp_Op19L-61" vertex="1">
          <mxGeometry x="60" width="120" height="30" as="geometry">
            <mxRectangle width="120" height="30" as="alternateBounds" />
          </mxGeometry>
        </mxCell>
        <mxCell id="Y9Ebi7SMnBBEPp_Op19L-64" value="" style="shape=tableRow;horizontal=0;startSize=0;swimlaneHead=0;swimlaneBody=0;fillColor=none;collapsible=0;dropTarget=0;points=[[0,0.5],[1,0.5]];portConstraint=eastwest;top=0;left=0;right=0;bottom=0;html=1;" parent="Y9Ebi7SMnBBEPp_Op19L-54" vertex="1">
          <mxGeometry y="90" width="180" height="30" as="geometry" />
        </mxCell>
        <mxCell id="Y9Ebi7SMnBBEPp_Op19L-65" value="" style="shape=partialRectangle;connectable=0;fillColor=none;top=0;left=0;bottom=0;right=0;editable=1;overflow=hidden;html=1;whiteSpace=wrap;" parent="Y9Ebi7SMnBBEPp_Op19L-64" vertex="1">
          <mxGeometry width="60" height="30" as="geometry">
            <mxRectangle width="60" height="30" as="alternateBounds" />
          </mxGeometry>
        </mxCell>
        <mxCell id="Y9Ebi7SMnBBEPp_Op19L-66" value="ContraseñaUsuario" style="shape=partialRectangle;connectable=0;fillColor=none;top=0;left=0;bottom=0;right=0;align=left;spacingLeft=6;overflow=hidden;html=1;whiteSpace=wrap;" parent="Y9Ebi7SMnBBEPp_Op19L-64" vertex="1">
          <mxGeometry x="60" width="120" height="30" as="geometry">
            <mxRectangle width="120" height="30" as="alternateBounds" />
          </mxGeometry>
        </mxCell>
        <mxCell id="Y9Ebi7SMnBBEPp_Op19L-67" value="" style="shape=tableRow;horizontal=0;startSize=0;swimlaneHead=0;swimlaneBody=0;fillColor=none;collapsible=0;dropTarget=0;points=[[0,0.5],[1,0.5]];portConstraint=eastwest;top=0;left=0;right=0;bottom=0;html=1;" parent="Y9Ebi7SMnBBEPp_Op19L-54" vertex="1">
          <mxGeometry y="120" width="180" height="30" as="geometry" />
        </mxCell>
        <mxCell id="Y9Ebi7SMnBBEPp_Op19L-68" value="" style="shape=partialRectangle;connectable=0;fillColor=none;top=0;left=0;bottom=0;right=0;editable=1;overflow=hidden;html=1;whiteSpace=wrap;" parent="Y9Ebi7SMnBBEPp_Op19L-67" vertex="1">
          <mxGeometry width="60" height="30" as="geometry">
            <mxRectangle width="60" height="30" as="alternateBounds" />
          </mxGeometry>
        </mxCell>
        <mxCell id="Y9Ebi7SMnBBEPp_Op19L-69" value="ID_RolUsuario" style="shape=partialRectangle;connectable=0;fillColor=none;top=0;left=0;bottom=0;right=0;align=left;spacingLeft=6;overflow=hidden;html=1;whiteSpace=wrap;" parent="Y9Ebi7SMnBBEPp_Op19L-67" vertex="1">
          <mxGeometry x="60" width="120" height="30" as="geometry">
            <mxRectangle width="120" height="30" as="alternateBounds" />
          </mxGeometry>
        </mxCell>
        <mxCell id="Y9Ebi7SMnBBEPp_Op19L-71" value="Factura" style="shape=table;startSize=30;container=1;collapsible=1;childLayout=tableLayout;fixedRows=1;rowLines=0;fontStyle=1;align=center;resizeLast=1;html=1;whiteSpace=wrap;" parent="1" vertex="1">
          <mxGeometry x="1879.94" y="420" width="180" height="270" as="geometry" />
        </mxCell>
        <mxCell id="Y9Ebi7SMnBBEPp_Op19L-72" value="" style="shape=tableRow;horizontal=0;startSize=0;swimlaneHead=0;swimlaneBody=0;fillColor=none;collapsible=0;dropTarget=0;points=[[0,0.5],[1,0.5]];portConstraint=eastwest;top=0;left=0;right=0;bottom=0;html=1;" parent="Y9Ebi7SMnBBEPp_Op19L-71" vertex="1">
          <mxGeometry y="30" width="180" height="30" as="geometry" />
        </mxCell>
        <mxCell id="Y9Ebi7SMnBBEPp_Op19L-73" value="PK" style="shape=partialRectangle;connectable=0;fillColor=none;top=0;left=0;bottom=0;right=0;fontStyle=1;overflow=hidden;html=1;whiteSpace=wrap;" parent="Y9Ebi7SMnBBEPp_Op19L-72" vertex="1">
          <mxGeometry width="40.00000000000091" height="30" as="geometry">
            <mxRectangle width="40.00000000000091" height="30" as="alternateBounds" />
          </mxGeometry>
        </mxCell>
        <mxCell id="Y9Ebi7SMnBBEPp_Op19L-74" value="ID_Factura" style="shape=partialRectangle;connectable=0;fillColor=none;top=0;left=0;bottom=0;right=0;align=left;spacingLeft=6;fontStyle=5;overflow=hidden;html=1;whiteSpace=wrap;" parent="Y9Ebi7SMnBBEPp_Op19L-72" vertex="1">
          <mxGeometry x="40.00000000000091" width="139.9999999999991" height="30" as="geometry">
            <mxRectangle width="139.9999999999991" height="30" as="alternateBounds" />
          </mxGeometry>
        </mxCell>
        <mxCell id="Y9Ebi7SMnBBEPp_Op19L-84" value="" style="shape=tableRow;horizontal=0;startSize=0;swimlaneHead=0;swimlaneBody=0;fillColor=none;collapsible=0;dropTarget=0;points=[[0,0.5],[1,0.5]];portConstraint=eastwest;top=0;left=0;right=0;bottom=0;html=1;" parent="Y9Ebi7SMnBBEPp_Op19L-71" vertex="1">
          <mxGeometry y="60" width="180" height="30" as="geometry" />
        </mxCell>
        <mxCell id="Y9Ebi7SMnBBEPp_Op19L-85" value="FK" style="shape=partialRectangle;connectable=0;fillColor=none;top=0;left=0;bottom=0;right=0;fontStyle=1;overflow=hidden;html=1;whiteSpace=wrap;" parent="Y9Ebi7SMnBBEPp_Op19L-84" vertex="1">
          <mxGeometry width="40.00000000000091" height="30" as="geometry">
            <mxRectangle width="40.00000000000091" height="30" as="alternateBounds" />
          </mxGeometry>
        </mxCell>
        <mxCell id="Y9Ebi7SMnBBEPp_Op19L-86" value="CódigoProductos" style="shape=partialRectangle;connectable=0;fillColor=none;top=0;left=0;bottom=0;right=0;align=left;spacingLeft=6;fontStyle=5;overflow=hidden;html=1;whiteSpace=wrap;" parent="Y9Ebi7SMnBBEPp_Op19L-84" vertex="1">
          <mxGeometry x="40.00000000000091" width="139.9999999999991" height="30" as="geometry">
            <mxRectangle width="139.9999999999991" height="30" as="alternateBounds" />
          </mxGeometry>
        </mxCell>
        <mxCell id="Y9Ebi7SMnBBEPp_Op19L-103" value="" style="shape=tableRow;horizontal=0;startSize=0;swimlaneHead=0;swimlaneBody=0;fillColor=none;collapsible=0;dropTarget=0;points=[[0,0.5],[1,0.5]];portConstraint=eastwest;top=0;left=0;right=0;bottom=1;html=1;" parent="Y9Ebi7SMnBBEPp_Op19L-71" vertex="1">
          <mxGeometry y="90" width="180" height="30" as="geometry" />
        </mxCell>
        <mxCell id="Y9Ebi7SMnBBEPp_Op19L-104" value="FK" style="shape=partialRectangle;connectable=0;fillColor=none;top=0;left=0;bottom=0;right=0;fontStyle=1;overflow=hidden;html=1;whiteSpace=wrap;" parent="Y9Ebi7SMnBBEPp_Op19L-103" vertex="1">
          <mxGeometry width="40.00000000000091" height="30" as="geometry">
            <mxRectangle width="40.00000000000091" height="30" as="alternateBounds" />
          </mxGeometry>
        </mxCell>
        <mxCell id="Y9Ebi7SMnBBEPp_Op19L-105" value="ID_Recibo" style="shape=partialRectangle;connectable=0;fillColor=none;top=0;left=0;bottom=0;right=0;align=left;spacingLeft=6;fontStyle=5;overflow=hidden;html=1;whiteSpace=wrap;" parent="Y9Ebi7SMnBBEPp_Op19L-103" vertex="1">
          <mxGeometry x="40.00000000000091" width="139.9999999999991" height="30" as="geometry">
            <mxRectangle width="139.9999999999991" height="30" as="alternateBounds" />
          </mxGeometry>
        </mxCell>
        <mxCell id="Y9Ebi7SMnBBEPp_Op19L-125" value="" style="shape=tableRow;horizontal=0;startSize=0;swimlaneHead=0;swimlaneBody=0;fillColor=none;collapsible=0;dropTarget=0;points=[[0,0.5],[1,0.5]];portConstraint=eastwest;top=0;left=0;right=0;bottom=0;html=1;" parent="Y9Ebi7SMnBBEPp_Op19L-71" vertex="1">
          <mxGeometry y="120" width="180" height="30" as="geometry" />
        </mxCell>
        <mxCell id="Y9Ebi7SMnBBEPp_Op19L-126" value="" style="shape=partialRectangle;connectable=0;fillColor=none;top=0;left=0;bottom=0;right=0;editable=1;overflow=hidden;html=1;whiteSpace=wrap;" parent="Y9Ebi7SMnBBEPp_Op19L-125" vertex="1">
          <mxGeometry width="40.00000000000091" height="30" as="geometry">
            <mxRectangle width="40.00000000000091" height="30" as="alternateBounds" />
          </mxGeometry>
        </mxCell>
        <mxCell id="Y9Ebi7SMnBBEPp_Op19L-127" value="FechaRealización" style="shape=partialRectangle;connectable=0;fillColor=none;top=0;left=0;bottom=0;right=0;align=left;spacingLeft=6;overflow=hidden;html=1;whiteSpace=wrap;" parent="Y9Ebi7SMnBBEPp_Op19L-125" vertex="1">
          <mxGeometry x="40.00000000000091" width="139.9999999999991" height="30" as="geometry">
            <mxRectangle width="139.9999999999991" height="30" as="alternateBounds" />
          </mxGeometry>
        </mxCell>
        <mxCell id="ylq0Wh5do1DhNVSN07a9-14" value="" style="shape=tableRow;horizontal=0;startSize=0;swimlaneHead=0;swimlaneBody=0;fillColor=none;collapsible=0;dropTarget=0;points=[[0,0.5],[1,0.5]];portConstraint=eastwest;top=0;left=0;right=0;bottom=0;html=1;" parent="Y9Ebi7SMnBBEPp_Op19L-71" vertex="1">
          <mxGeometry y="150" width="180" height="30" as="geometry" />
        </mxCell>
        <mxCell id="ylq0Wh5do1DhNVSN07a9-15" value="" style="shape=partialRectangle;connectable=0;fillColor=none;top=0;left=0;bottom=0;right=0;editable=1;overflow=hidden;html=1;whiteSpace=wrap;" parent="ylq0Wh5do1DhNVSN07a9-14" vertex="1">
          <mxGeometry width="40.00000000000091" height="30" as="geometry">
            <mxRectangle width="40.00000000000091" height="30" as="alternateBounds" />
          </mxGeometry>
        </mxCell>
        <mxCell id="ylq0Wh5do1DhNVSN07a9-16" value="MetodoPago" style="shape=partialRectangle;connectable=0;fillColor=none;top=0;left=0;bottom=0;right=0;align=left;spacingLeft=6;overflow=hidden;html=1;whiteSpace=wrap;" parent="ylq0Wh5do1DhNVSN07a9-14" vertex="1">
          <mxGeometry x="40.00000000000091" width="139.9999999999991" height="30" as="geometry">
            <mxRectangle width="139.9999999999991" height="30" as="alternateBounds" />
          </mxGeometry>
        </mxCell>
        <mxCell id="ylq0Wh5do1DhNVSN07a9-17" value="" style="shape=tableRow;horizontal=0;startSize=0;swimlaneHead=0;swimlaneBody=0;fillColor=none;collapsible=0;dropTarget=0;points=[[0,0.5],[1,0.5]];portConstraint=eastwest;top=0;left=0;right=0;bottom=0;html=1;" parent="Y9Ebi7SMnBBEPp_Op19L-71" vertex="1">
          <mxGeometry y="180" width="180" height="30" as="geometry" />
        </mxCell>
        <mxCell id="ylq0Wh5do1DhNVSN07a9-18" value="" style="shape=partialRectangle;connectable=0;fillColor=none;top=0;left=0;bottom=0;right=0;editable=1;overflow=hidden;html=1;whiteSpace=wrap;" parent="ylq0Wh5do1DhNVSN07a9-17" vertex="1">
          <mxGeometry width="40.00000000000091" height="30" as="geometry">
            <mxRectangle width="40.00000000000091" height="30" as="alternateBounds" />
          </mxGeometry>
        </mxCell>
        <mxCell id="ylq0Wh5do1DhNVSN07a9-19" value="PrecioTotalCuenta" style="shape=partialRectangle;connectable=0;fillColor=none;top=0;left=0;bottom=0;right=0;align=left;spacingLeft=6;overflow=hidden;html=1;whiteSpace=wrap;" parent="ylq0Wh5do1DhNVSN07a9-17" vertex="1">
          <mxGeometry x="40.00000000000091" width="139.9999999999991" height="30" as="geometry">
            <mxRectangle width="139.9999999999991" height="30" as="alternateBounds" />
          </mxGeometry>
        </mxCell>
        <mxCell id="ylq0Wh5do1DhNVSN07a9-45" value="" style="shape=tableRow;horizontal=0;startSize=0;swimlaneHead=0;swimlaneBody=0;fillColor=none;collapsible=0;dropTarget=0;points=[[0,0.5],[1,0.5]];portConstraint=eastwest;top=0;left=0;right=0;bottom=0;html=1;" parent="Y9Ebi7SMnBBEPp_Op19L-71" vertex="1">
          <mxGeometry y="210" width="180" height="30" as="geometry" />
        </mxCell>
        <mxCell id="ylq0Wh5do1DhNVSN07a9-46" value="" style="shape=partialRectangle;connectable=0;fillColor=none;top=0;left=0;bottom=0;right=0;editable=1;overflow=hidden;html=1;whiteSpace=wrap;" parent="ylq0Wh5do1DhNVSN07a9-45" vertex="1">
          <mxGeometry width="40.00000000000091" height="30" as="geometry">
            <mxRectangle width="40.00000000000091" height="30" as="alternateBounds" />
          </mxGeometry>
        </mxCell>
        <mxCell id="ylq0Wh5do1DhNVSN07a9-47" value="PrecioUnitarioProducto" style="shape=partialRectangle;connectable=0;fillColor=none;top=0;left=0;bottom=0;right=0;align=left;spacingLeft=6;overflow=hidden;html=1;whiteSpace=wrap;" parent="ylq0Wh5do1DhNVSN07a9-45" vertex="1">
          <mxGeometry x="40.00000000000091" width="139.9999999999991" height="30" as="geometry">
            <mxRectangle width="139.9999999999991" height="30" as="alternateBounds" />
          </mxGeometry>
        </mxCell>
        <mxCell id="ylq0Wh5do1DhNVSN07a9-48" value="" style="shape=tableRow;horizontal=0;startSize=0;swimlaneHead=0;swimlaneBody=0;fillColor=none;collapsible=0;dropTarget=0;points=[[0,0.5],[1,0.5]];portConstraint=eastwest;top=0;left=0;right=0;bottom=0;html=1;" parent="Y9Ebi7SMnBBEPp_Op19L-71" vertex="1">
          <mxGeometry y="240" width="180" height="30" as="geometry" />
        </mxCell>
        <mxCell id="ylq0Wh5do1DhNVSN07a9-49" value="" style="shape=partialRectangle;connectable=0;fillColor=none;top=0;left=0;bottom=0;right=0;editable=1;overflow=hidden;html=1;whiteSpace=wrap;" parent="ylq0Wh5do1DhNVSN07a9-48" vertex="1">
          <mxGeometry width="40.00000000000091" height="30" as="geometry">
            <mxRectangle width="40.00000000000091" height="30" as="alternateBounds" />
          </mxGeometry>
        </mxCell>
        <mxCell id="ylq0Wh5do1DhNVSN07a9-50" value="CantidadProducto" style="shape=partialRectangle;connectable=0;fillColor=none;top=0;left=0;bottom=0;right=0;align=left;spacingLeft=6;overflow=hidden;html=1;whiteSpace=wrap;" parent="ylq0Wh5do1DhNVSN07a9-48" vertex="1">
          <mxGeometry x="40.00000000000091" width="139.9999999999991" height="30" as="geometry">
            <mxRectangle width="139.9999999999991" height="30" as="alternateBounds" />
          </mxGeometry>
        </mxCell>
        <mxCell id="Y9Ebi7SMnBBEPp_Op19L-128" value="Recibo" style="shape=table;startSize=30;container=1;collapsible=1;childLayout=tableLayout;fixedRows=1;rowLines=0;fontStyle=1;align=center;resizeLast=1;html=1;whiteSpace=wrap;" parent="1" vertex="1">
          <mxGeometry x="1879.94" y="710" width="180" height="120" as="geometry" />
        </mxCell>
        <mxCell id="Y9Ebi7SMnBBEPp_Op19L-132" value="" style="shape=tableRow;horizontal=0;startSize=0;swimlaneHead=0;swimlaneBody=0;fillColor=none;collapsible=0;dropTarget=0;points=[[0,0.5],[1,0.5]];portConstraint=eastwest;top=0;left=0;right=0;bottom=0;html=1;" parent="Y9Ebi7SMnBBEPp_Op19L-128" vertex="1">
          <mxGeometry y="30" width="180" height="30" as="geometry" />
        </mxCell>
        <mxCell id="Y9Ebi7SMnBBEPp_Op19L-133" value="PK" style="shape=partialRectangle;connectable=0;fillColor=none;top=0;left=0;bottom=0;right=0;fontStyle=1;overflow=hidden;html=1;whiteSpace=wrap;" parent="Y9Ebi7SMnBBEPp_Op19L-132" vertex="1">
          <mxGeometry width="60" height="30" as="geometry">
            <mxRectangle width="60" height="30" as="alternateBounds" />
          </mxGeometry>
        </mxCell>
        <mxCell id="Y9Ebi7SMnBBEPp_Op19L-134" value="ID_Recibo" style="shape=partialRectangle;connectable=0;fillColor=none;top=0;left=0;bottom=0;right=0;align=left;spacingLeft=6;fontStyle=5;overflow=hidden;html=1;whiteSpace=wrap;" parent="Y9Ebi7SMnBBEPp_Op19L-132" vertex="1">
          <mxGeometry x="60" width="120" height="30" as="geometry">
            <mxRectangle width="120" height="30" as="alternateBounds" />
          </mxGeometry>
        </mxCell>
        <mxCell id="ylq0Wh5do1DhNVSN07a9-7" value="" style="shape=tableRow;horizontal=0;startSize=0;swimlaneHead=0;swimlaneBody=0;fillColor=none;collapsible=0;dropTarget=0;points=[[0,0.5],[1,0.5]];portConstraint=eastwest;top=0;left=0;right=0;bottom=1;html=1;" parent="Y9Ebi7SMnBBEPp_Op19L-128" vertex="1">
          <mxGeometry y="60" width="180" height="30" as="geometry" />
        </mxCell>
        <mxCell id="ylq0Wh5do1DhNVSN07a9-8" value="FK" style="shape=partialRectangle;connectable=0;fillColor=none;top=0;left=0;bottom=0;right=0;fontStyle=1;overflow=hidden;html=1;whiteSpace=wrap;" parent="ylq0Wh5do1DhNVSN07a9-7" vertex="1">
          <mxGeometry width="60" height="30" as="geometry">
            <mxRectangle width="60" height="30" as="alternateBounds" />
          </mxGeometry>
        </mxCell>
        <mxCell id="ylq0Wh5do1DhNVSN07a9-9" value="ID_Factura" style="shape=partialRectangle;connectable=0;fillColor=none;top=0;left=0;bottom=0;right=0;align=left;spacingLeft=6;fontStyle=5;overflow=hidden;html=1;whiteSpace=wrap;" parent="ylq0Wh5do1DhNVSN07a9-7" vertex="1">
          <mxGeometry x="60" width="120" height="30" as="geometry">
            <mxRectangle width="120" height="30" as="alternateBounds" />
          </mxGeometry>
        </mxCell>
        <mxCell id="Y9Ebi7SMnBBEPp_Op19L-135" value="" style="shape=tableRow;horizontal=0;startSize=0;swimlaneHead=0;swimlaneBody=0;fillColor=none;collapsible=0;dropTarget=0;points=[[0,0.5],[1,0.5]];portConstraint=eastwest;top=0;left=0;right=0;bottom=0;html=1;" parent="Y9Ebi7SMnBBEPp_Op19L-128" vertex="1">
          <mxGeometry y="90" width="180" height="30" as="geometry" />
        </mxCell>
        <mxCell id="Y9Ebi7SMnBBEPp_Op19L-136" value="" style="shape=partialRectangle;connectable=0;fillColor=none;top=0;left=0;bottom=0;right=0;editable=1;overflow=hidden;html=1;whiteSpace=wrap;" parent="Y9Ebi7SMnBBEPp_Op19L-135" vertex="1">
          <mxGeometry width="60" height="30" as="geometry">
            <mxRectangle width="60" height="30" as="alternateBounds" />
          </mxGeometry>
        </mxCell>
        <mxCell id="Y9Ebi7SMnBBEPp_Op19L-137" value="DireccionURL" style="shape=partialRectangle;connectable=0;fillColor=none;top=0;left=0;bottom=0;right=0;align=left;spacingLeft=6;overflow=hidden;html=1;whiteSpace=wrap;" parent="Y9Ebi7SMnBBEPp_Op19L-135" vertex="1">
          <mxGeometry x="60" width="120" height="30" as="geometry">
            <mxRectangle width="120" height="30" as="alternateBounds" />
          </mxGeometry>
        </mxCell>
        <mxCell id="Y9Ebi7SMnBBEPp_Op19L-141" style="edgeStyle=orthogonalEdgeStyle;rounded=0;orthogonalLoop=1;jettySize=auto;html=1;exitX=0;exitY=0.5;exitDx=0;exitDy=0;entryX=0;entryY=0.5;entryDx=0;entryDy=0;" parent="1" source="Y9Ebi7SMnBBEPp_Op19L-58" target="Y9Ebi7SMnBBEPp_Op19L-51" edge="1">
          <mxGeometry relative="1" as="geometry" />
        </mxCell>
        <mxCell id="Y9Ebi7SMnBBEPp_Op19L-142" style="edgeStyle=orthogonalEdgeStyle;rounded=0;orthogonalLoop=1;jettySize=auto;html=1;exitX=0;exitY=0.5;exitDx=0;exitDy=0;entryX=0;entryY=0.5;entryDx=0;entryDy=0;" parent="1" source="Y9Ebi7SMnBBEPp_Op19L-12" target="Y9Ebi7SMnBBEPp_Op19L-48" edge="1">
          <mxGeometry relative="1" as="geometry" />
        </mxCell>
        <mxCell id="Y9Ebi7SMnBBEPp_Op19L-143" style="edgeStyle=orthogonalEdgeStyle;rounded=0;orthogonalLoop=1;jettySize=auto;html=1;exitX=0;exitY=0.5;exitDx=0;exitDy=0;entryX=1;entryY=0.5;entryDx=0;entryDy=0;" parent="1" source="Y9Ebi7SMnBBEPp_Op19L-72" target="Y9Ebi7SMnBBEPp_Op19L-45" edge="1">
          <mxGeometry relative="1" as="geometry">
            <Array as="points">
              <mxPoint x="1798.94" y="465" />
              <mxPoint x="1798.94" y="650" />
            </Array>
          </mxGeometry>
        </mxCell>
        <mxCell id="Y9Ebi7SMnBBEPp_Op19L-144" style="edgeStyle=orthogonalEdgeStyle;rounded=0;orthogonalLoop=1;jettySize=auto;html=1;exitX=0;exitY=0.5;exitDx=0;exitDy=0;entryX=0;entryY=0.5;entryDx=0;entryDy=0;" parent="1" source="Y9Ebi7SMnBBEPp_Op19L-132" target="Y9Ebi7SMnBBEPp_Op19L-103" edge="1">
          <mxGeometry relative="1" as="geometry" />
        </mxCell>
        <mxCell id="Y9Ebi7SMnBBEPp_Op19L-145" style="edgeStyle=orthogonalEdgeStyle;rounded=0;orthogonalLoop=1;jettySize=auto;html=1;exitX=0;exitY=0.5;exitDx=0;exitDy=0;entryX=1;entryY=0.5;entryDx=0;entryDy=0;startArrow=classic;startFill=1;endArrow=none;endFill=0;" parent="1" source="Y9Ebi7SMnBBEPp_Op19L-84" target="Y9Ebi7SMnBBEPp_Op19L-48" edge="1">
          <mxGeometry relative="1" as="geometry">
            <Array as="points">
              <mxPoint x="1830" y="495" />
              <mxPoint x="1830" y="680" />
            </Array>
          </mxGeometry>
        </mxCell>
        <mxCell id="lYTeRvdv8kLkkW_NQM2Z-179" style="edgeStyle=orthogonalEdgeStyle;rounded=0;orthogonalLoop=1;jettySize=auto;html=1;entryX=0;entryY=0.5;entryDx=0;entryDy=0;endArrow=none;endFill=0;" parent="1" source="lYTeRvdv8kLkkW_NQM2Z-133" target="lYTeRvdv8kLkkW_NQM2Z-173" edge="1">
          <mxGeometry relative="1" as="geometry" />
        </mxCell>
        <mxCell id="lYTeRvdv8kLkkW_NQM2Z-203" style="edgeStyle=orthogonalEdgeStyle;rounded=0;orthogonalLoop=1;jettySize=auto;html=1;entryX=1;entryY=0.5;entryDx=0;entryDy=0;endArrow=none;endFill=0;" parent="1" source="lYTeRvdv8kLkkW_NQM2Z-133" target="lYTeRvdv8kLkkW_NQM2Z-162" edge="1">
          <mxGeometry relative="1" as="geometry">
            <Array as="points">
              <mxPoint x="680" y="560" />
            </Array>
          </mxGeometry>
        </mxCell>
        <mxCell id="lYTeRvdv8kLkkW_NQM2Z-204" style="edgeStyle=orthogonalEdgeStyle;rounded=0;orthogonalLoop=1;jettySize=auto;html=1;entryX=0;entryY=0.5;entryDx=0;entryDy=0;endArrow=none;endFill=0;" parent="1" source="lYTeRvdv8kLkkW_NQM2Z-133" target="lYTeRvdv8kLkkW_NQM2Z-161" edge="1">
          <mxGeometry relative="1" as="geometry">
            <Array as="points">
              <mxPoint x="710" y="560" />
            </Array>
          </mxGeometry>
        </mxCell>
        <mxCell id="lYTeRvdv8kLkkW_NQM2Z-261" style="edgeStyle=orthogonalEdgeStyle;rounded=0;orthogonalLoop=1;jettySize=auto;html=1;entryX=1;entryY=0.5;entryDx=0;entryDy=0;endArrow=none;endFill=0;" parent="1" source="lYTeRvdv8kLkkW_NQM2Z-133" target="lYTeRvdv8kLkkW_NQM2Z-160" edge="1">
          <mxGeometry relative="1" as="geometry">
            <Array as="points">
              <mxPoint x="710" y="680" />
            </Array>
          </mxGeometry>
        </mxCell>
        <mxCell id="lYTeRvdv8kLkkW_NQM2Z-262" style="edgeStyle=orthogonalEdgeStyle;rounded=0;orthogonalLoop=1;jettySize=auto;html=1;entryX=0.5;entryY=1;entryDx=0;entryDy=0;endArrow=none;endFill=0;" parent="1" source="lYTeRvdv8kLkkW_NQM2Z-133" target="lYTeRvdv8kLkkW_NQM2Z-260" edge="1">
          <mxGeometry relative="1" as="geometry" />
        </mxCell>
        <mxCell id="lYTeRvdv8kLkkW_NQM2Z-133" value="Aplicación" style="rounded=1;arcSize=10;whiteSpace=wrap;html=1;align=center;" parent="1" vertex="1">
          <mxGeometry x="643" y="600" width="100" height="40" as="geometry" />
        </mxCell>
        <mxCell id="lYTeRvdv8kLkkW_NQM2Z-134" value="Usuario" style="rounded=1;arcSize=10;whiteSpace=wrap;html=1;align=center;" parent="1" vertex="1">
          <mxGeometry x="643" y="820" width="100" height="40" as="geometry" />
        </mxCell>
        <mxCell id="lYTeRvdv8kLkkW_NQM2Z-135" style="edgeStyle=orthogonalEdgeStyle;rounded=0;orthogonalLoop=1;jettySize=auto;html=1;entryX=0.5;entryY=1;entryDx=0;entryDy=0;endArrow=none;endFill=0;" parent="1" source="lYTeRvdv8kLkkW_NQM2Z-141" target="lYTeRvdv8kLkkW_NQM2Z-164" edge="1">
          <mxGeometry relative="1" as="geometry" />
        </mxCell>
        <mxCell id="lYTeRvdv8kLkkW_NQM2Z-136" style="edgeStyle=orthogonalEdgeStyle;rounded=0;orthogonalLoop=1;jettySize=auto;html=1;entryX=1;entryY=0.5;entryDx=0;entryDy=0;endArrow=none;endFill=0;" parent="1" source="lYTeRvdv8kLkkW_NQM2Z-141" target="lYTeRvdv8kLkkW_NQM2Z-156" edge="1">
          <mxGeometry relative="1" as="geometry">
            <Array as="points">
              <mxPoint x="683" y="260" />
            </Array>
          </mxGeometry>
        </mxCell>
        <mxCell id="lYTeRvdv8kLkkW_NQM2Z-137" style="edgeStyle=orthogonalEdgeStyle;rounded=0;orthogonalLoop=1;jettySize=auto;html=1;entryX=0;entryY=0.5;entryDx=0;entryDy=0;endArrow=none;endFill=0;" parent="1" source="lYTeRvdv8kLkkW_NQM2Z-141" target="lYTeRvdv8kLkkW_NQM2Z-157" edge="1">
          <mxGeometry relative="1" as="geometry">
            <Array as="points">
              <mxPoint x="703" y="260" />
            </Array>
          </mxGeometry>
        </mxCell>
        <mxCell id="lYTeRvdv8kLkkW_NQM2Z-138" style="edgeStyle=orthogonalEdgeStyle;rounded=0;orthogonalLoop=1;jettySize=auto;html=1;entryX=1;entryY=0.5;entryDx=0;entryDy=0;endArrow=none;endFill=0;" parent="1" source="lYTeRvdv8kLkkW_NQM2Z-141" target="lYTeRvdv8kLkkW_NQM2Z-155" edge="1">
          <mxGeometry relative="1" as="geometry">
            <Array as="points">
              <mxPoint x="673" y="310" />
            </Array>
          </mxGeometry>
        </mxCell>
        <mxCell id="lYTeRvdv8kLkkW_NQM2Z-140" style="edgeStyle=orthogonalEdgeStyle;rounded=0;orthogonalLoop=1;jettySize=auto;html=1;entryX=0;entryY=0.5;entryDx=0;entryDy=0;endArrow=none;endFill=0;" parent="1" source="lYTeRvdv8kLkkW_NQM2Z-141" target="lYTeRvdv8kLkkW_NQM2Z-172" edge="1">
          <mxGeometry relative="1" as="geometry">
            <Array as="points">
              <mxPoint x="713" y="310" />
            </Array>
          </mxGeometry>
        </mxCell>
        <mxCell id="lYTeRvdv8kLkkW_NQM2Z-258" style="edgeStyle=orthogonalEdgeStyle;rounded=0;orthogonalLoop=1;jettySize=auto;html=1;entryX=1;entryY=0.5;entryDx=0;entryDy=0;endArrow=none;endFill=0;" parent="1" source="lYTeRvdv8kLkkW_NQM2Z-141" target="lYTeRvdv8kLkkW_NQM2Z-169" edge="1">
          <mxGeometry relative="1" as="geometry" />
        </mxCell>
        <mxCell id="lYTeRvdv8kLkkW_NQM2Z-141" value="Producto" style="rounded=1;arcSize=10;whiteSpace=wrap;html=1;align=center;" parent="1" vertex="1">
          <mxGeometry x="643" y="350" width="100" height="40" as="geometry" />
        </mxCell>
        <mxCell id="lYTeRvdv8kLkkW_NQM2Z-142" style="edgeStyle=orthogonalEdgeStyle;rounded=0;orthogonalLoop=1;jettySize=auto;html=1;exitX=1;exitY=0.5;exitDx=0;exitDy=0;entryX=0.317;entryY=1.032;entryDx=0;entryDy=0;entryPerimeter=0;endArrow=none;endFill=0;" parent="1" edge="1">
          <mxGeometry relative="1" as="geometry">
            <mxPoint x="612.0000000000018" y="898.9999999999999" as="sourcePoint" />
            <mxPoint x="673.7" y="860.28" as="targetPoint" />
          </mxGeometry>
        </mxCell>
        <mxCell id="lYTeRvdv8kLkkW_NQM2Z-143" value="ID_Usuario" style="ellipse;whiteSpace=wrap;html=1;align=center;fontStyle=4;" parent="1" vertex="1">
          <mxGeometry x="513" y="880" width="100" height="40" as="geometry" />
        </mxCell>
        <mxCell id="lYTeRvdv8kLkkW_NQM2Z-144" style="edgeStyle=orthogonalEdgeStyle;rounded=0;orthogonalLoop=1;jettySize=auto;html=1;exitX=1;exitY=0.5;exitDx=0;exitDy=0;endArrow=none;endFill=0;" parent="1" source="lYTeRvdv8kLkkW_NQM2Z-145" edge="1">
          <mxGeometry relative="1" as="geometry">
            <mxPoint x="683.0588235294117" y="859.9999999999998" as="targetPoint" />
            <Array as="points">
              <mxPoint x="683" y="910" />
              <mxPoint x="683" y="910" />
            </Array>
          </mxGeometry>
        </mxCell>
        <mxCell id="lYTeRvdv8kLkkW_NQM2Z-145" value="NombreUsuario" style="ellipse;whiteSpace=wrap;html=1;align=center;" parent="1" vertex="1">
          <mxGeometry x="573" y="920" width="100" height="40" as="geometry" />
        </mxCell>
        <mxCell id="lYTeRvdv8kLkkW_NQM2Z-146" style="edgeStyle=orthogonalEdgeStyle;rounded=0;orthogonalLoop=1;jettySize=auto;html=1;exitX=0;exitY=0.5;exitDx=0;exitDy=0;entryX=0.5;entryY=1;entryDx=0;entryDy=0;endArrow=none;endFill=0;" parent="1" source="lYTeRvdv8kLkkW_NQM2Z-147" target="lYTeRvdv8kLkkW_NQM2Z-134" edge="1">
          <mxGeometry relative="1" as="geometry">
            <Array as="points">
              <mxPoint x="693" y="940" />
            </Array>
          </mxGeometry>
        </mxCell>
        <mxCell id="lYTeRvdv8kLkkW_NQM2Z-147" value="ContraseñaUsuario" style="ellipse;whiteSpace=wrap;html=1;align=center;" parent="1" vertex="1">
          <mxGeometry x="703" y="920" width="100" height="40" as="geometry" />
        </mxCell>
        <mxCell id="lYTeRvdv8kLkkW_NQM2Z-148" style="edgeStyle=orthogonalEdgeStyle;rounded=0;orthogonalLoop=1;jettySize=auto;html=1;exitX=0;exitY=0.5;exitDx=0;exitDy=0;entryX=0.6;entryY=1;entryDx=0;entryDy=0;entryPerimeter=0;endArrow=none;endFill=0;" parent="1" source="lYTeRvdv8kLkkW_NQM2Z-149" target="lYTeRvdv8kLkkW_NQM2Z-134" edge="1">
          <mxGeometry relative="1" as="geometry" />
        </mxCell>
        <mxCell id="lYTeRvdv8kLkkW_NQM2Z-149" value="ID_RolUsuario" style="ellipse;whiteSpace=wrap;html=1;align=center;" parent="1" vertex="1">
          <mxGeometry x="773" y="880" width="100" height="40" as="geometry" />
        </mxCell>
        <mxCell id="lYTeRvdv8kLkkW_NQM2Z-150" style="edgeStyle=orthogonalEdgeStyle;rounded=0;orthogonalLoop=1;jettySize=auto;html=1;exitX=0.5;exitY=0;exitDx=0;exitDy=0;entryX=0.5;entryY=1;entryDx=0;entryDy=0;endArrow=none;endFill=0;" parent="1" source="lYTeRvdv8kLkkW_NQM2Z-152" target="lYTeRvdv8kLkkW_NQM2Z-133" edge="1">
          <mxGeometry relative="1" as="geometry" />
        </mxCell>
        <mxCell id="lYTeRvdv8kLkkW_NQM2Z-151" style="edgeStyle=orthogonalEdgeStyle;rounded=0;orthogonalLoop=1;jettySize=auto;html=1;exitX=0.5;exitY=1;exitDx=0;exitDy=0;endArrow=none;endFill=0;" parent="1" source="lYTeRvdv8kLkkW_NQM2Z-152" target="lYTeRvdv8kLkkW_NQM2Z-134" edge="1">
          <mxGeometry relative="1" as="geometry" />
        </mxCell>
        <mxCell id="lYTeRvdv8kLkkW_NQM2Z-152" value="Accede" style="shape=rhombus;perimeter=rhombusPerimeter;whiteSpace=wrap;html=1;align=center;" parent="1" vertex="1">
          <mxGeometry x="633" y="700" width="120" height="60" as="geometry" />
        </mxCell>
        <mxCell id="lYTeRvdv8kLkkW_NQM2Z-155" value="NombreProducto" style="ellipse;whiteSpace=wrap;html=1;align=center;" parent="1" vertex="1">
          <mxGeometry x="548" y="290" width="100" height="40" as="geometry" />
        </mxCell>
        <mxCell id="lYTeRvdv8kLkkW_NQM2Z-156" value="DetalleProducto" style="ellipse;whiteSpace=wrap;html=1;align=center;" parent="1" vertex="1">
          <mxGeometry x="548" y="240" width="100" height="40" as="geometry" />
        </mxCell>
        <mxCell id="lYTeRvdv8kLkkW_NQM2Z-157" value="PrecioUnitario" style="ellipse;whiteSpace=wrap;html=1;align=center;" parent="1" vertex="1">
          <mxGeometry x="738" y="240" width="100" height="40" as="geometry" />
        </mxCell>
        <mxCell id="lYTeRvdv8kLkkW_NQM2Z-159" value="1:n" style="text;html=1;align=center;verticalAlign=middle;resizable=0;points=[];autosize=1;strokeColor=none;fillColor=none;" parent="1" vertex="1">
          <mxGeometry x="593" y="715" width="40" height="30" as="geometry" />
        </mxCell>
        <mxCell id="lYTeRvdv8kLkkW_NQM2Z-160" value="&lt;span style=&quot;border-bottom: 1px dotted&quot;&gt;CódigoProducto&lt;/span&gt;" style="ellipse;whiteSpace=wrap;html=1;align=center;" parent="1" vertex="1">
          <mxGeometry x="743" y="660" width="100" height="40" as="geometry" />
        </mxCell>
        <mxCell id="lYTeRvdv8kLkkW_NQM2Z-161" value="&lt;span style=&quot;border-bottom: 1px dotted&quot;&gt;ID_Factura&lt;/span&gt;" style="ellipse;whiteSpace=wrap;html=1;align=center;" parent="1" vertex="1">
          <mxGeometry x="738" y="540" width="100" height="40" as="geometry" />
        </mxCell>
        <mxCell id="lYTeRvdv8kLkkW_NQM2Z-162" value="&lt;span style=&quot;border-bottom: 1px dotted&quot;&gt;ID_Usuario&lt;/span&gt;" style="ellipse;whiteSpace=wrap;html=1;align=center;" parent="1" vertex="1">
          <mxGeometry x="543" y="540" width="100" height="40" as="geometry" />
        </mxCell>
        <mxCell id="lYTeRvdv8kLkkW_NQM2Z-163" value="0 = Admin&lt;br&gt;1 = Usuario" style="text;html=1;strokeColor=none;fillColor=none;align=center;verticalAlign=middle;whiteSpace=wrap;rounded=0;" parent="1" vertex="1">
          <mxGeometry x="773" y="850" width="100" height="30" as="geometry" />
        </mxCell>
        <mxCell id="lYTeRvdv8kLkkW_NQM2Z-164" value="&lt;u&gt;CódigoProducto&lt;/u&gt;" style="ellipse;whiteSpace=wrap;html=1;align=center;" parent="1" vertex="1">
          <mxGeometry x="643" y="170" width="100" height="40" as="geometry" />
        </mxCell>
        <mxCell id="lYTeRvdv8kLkkW_NQM2Z-165" style="edgeStyle=orthogonalEdgeStyle;rounded=0;orthogonalLoop=1;jettySize=auto;html=1;entryX=0;entryY=0.5;entryDx=0;entryDy=0;endArrow=none;endFill=0;" parent="1" source="lYTeRvdv8kLkkW_NQM2Z-167" target="lYTeRvdv8kLkkW_NQM2Z-171" edge="1">
          <mxGeometry relative="1" as="geometry">
            <Array as="points">
              <mxPoint x="261.5" y="310" />
            </Array>
          </mxGeometry>
        </mxCell>
        <mxCell id="lYTeRvdv8kLkkW_NQM2Z-166" style="edgeStyle=orthogonalEdgeStyle;rounded=0;orthogonalLoop=1;jettySize=auto;html=1;entryX=1;entryY=0.5;entryDx=0;entryDy=0;endArrow=none;endFill=0;" parent="1" source="lYTeRvdv8kLkkW_NQM2Z-167" target="lYTeRvdv8kLkkW_NQM2Z-170" edge="1">
          <mxGeometry relative="1" as="geometry">
            <Array as="points">
              <mxPoint x="241.5" y="310" />
            </Array>
          </mxGeometry>
        </mxCell>
        <mxCell id="lYTeRvdv8kLkkW_NQM2Z-167" value="Categoría" style="rounded=1;arcSize=10;whiteSpace=wrap;html=1;align=center;" parent="1" vertex="1">
          <mxGeometry x="201.5" y="350" width="100" height="40" as="geometry" />
        </mxCell>
        <mxCell id="lYTeRvdv8kLkkW_NQM2Z-259" style="edgeStyle=orthogonalEdgeStyle;rounded=0;orthogonalLoop=1;jettySize=auto;html=1;entryX=1;entryY=0.5;entryDx=0;entryDy=0;endArrow=none;endFill=0;" parent="1" source="lYTeRvdv8kLkkW_NQM2Z-169" target="lYTeRvdv8kLkkW_NQM2Z-167" edge="1">
          <mxGeometry relative="1" as="geometry" />
        </mxCell>
        <mxCell id="lYTeRvdv8kLkkW_NQM2Z-169" value="Pertenece" style="shape=rhombus;perimeter=rhombusPerimeter;whiteSpace=wrap;html=1;align=center;" parent="1" vertex="1">
          <mxGeometry x="410" y="340" width="120" height="60" as="geometry" />
        </mxCell>
        <mxCell id="lYTeRvdv8kLkkW_NQM2Z-170" value="NombreCategoria" style="ellipse;whiteSpace=wrap;html=1;align=center;" parent="1" vertex="1">
          <mxGeometry x="118.5" y="290" width="100" height="40" as="geometry" />
        </mxCell>
        <mxCell id="lYTeRvdv8kLkkW_NQM2Z-171" value="&lt;u&gt;ID_Categoría&lt;/u&gt;" style="ellipse;whiteSpace=wrap;html=1;align=center;" parent="1" vertex="1">
          <mxGeometry x="281.5" y="290" width="100" height="40" as="geometry" />
        </mxCell>
        <mxCell id="lYTeRvdv8kLkkW_NQM2Z-172" value="&lt;span style=&quot;border-bottom: 1px dotted&quot;&gt;ID_Categoría&lt;/span&gt;" style="ellipse;whiteSpace=wrap;html=1;align=center;" parent="1" vertex="1">
          <mxGeometry x="738" y="290" width="100" height="40" as="geometry" />
        </mxCell>
        <mxCell id="lYTeRvdv8kLkkW_NQM2Z-180" style="edgeStyle=orthogonalEdgeStyle;rounded=0;orthogonalLoop=1;jettySize=auto;html=1;entryX=0;entryY=0.5;entryDx=0;entryDy=0;endArrow=none;endFill=0;" parent="1" source="lYTeRvdv8kLkkW_NQM2Z-173" target="lYTeRvdv8kLkkW_NQM2Z-175" edge="1">
          <mxGeometry relative="1" as="geometry" />
        </mxCell>
        <mxCell id="lYTeRvdv8kLkkW_NQM2Z-173" value="Produce" style="shape=rhombus;perimeter=rhombusPerimeter;whiteSpace=wrap;html=1;align=center;" parent="1" vertex="1">
          <mxGeometry x="838" y="590" width="120" height="60" as="geometry" />
        </mxCell>
        <mxCell id="lYTeRvdv8kLkkW_NQM2Z-183" style="edgeStyle=orthogonalEdgeStyle;rounded=0;orthogonalLoop=1;jettySize=auto;html=1;entryX=0.5;entryY=0;entryDx=0;entryDy=0;endArrow=none;endFill=0;" parent="1" source="lYTeRvdv8kLkkW_NQM2Z-175" target="lYTeRvdv8kLkkW_NQM2Z-182" edge="1">
          <mxGeometry relative="1" as="geometry" />
        </mxCell>
        <mxCell id="lYTeRvdv8kLkkW_NQM2Z-222" style="edgeStyle=orthogonalEdgeStyle;rounded=0;orthogonalLoop=1;jettySize=auto;html=1;entryX=1;entryY=0.5;entryDx=0;entryDy=0;endArrow=none;endFill=0;" parent="1" source="lYTeRvdv8kLkkW_NQM2Z-175" target="lYTeRvdv8kLkkW_NQM2Z-218" edge="1">
          <mxGeometry relative="1" as="geometry">
            <Array as="points">
              <mxPoint x="1080" y="470" />
            </Array>
          </mxGeometry>
        </mxCell>
        <mxCell id="lYTeRvdv8kLkkW_NQM2Z-223" style="edgeStyle=orthogonalEdgeStyle;rounded=0;orthogonalLoop=1;jettySize=auto;html=1;entryX=0;entryY=0.5;entryDx=0;entryDy=0;endArrow=none;endFill=0;" parent="1" source="lYTeRvdv8kLkkW_NQM2Z-175" target="lYTeRvdv8kLkkW_NQM2Z-219" edge="1">
          <mxGeometry relative="1" as="geometry">
            <Array as="points">
              <mxPoint x="1110" y="470" />
            </Array>
          </mxGeometry>
        </mxCell>
        <mxCell id="lYTeRvdv8kLkkW_NQM2Z-224" style="edgeStyle=orthogonalEdgeStyle;rounded=0;orthogonalLoop=1;jettySize=auto;html=1;entryX=1;entryY=0.5;entryDx=0;entryDy=0;endArrow=none;endFill=0;" parent="1" source="lYTeRvdv8kLkkW_NQM2Z-175" target="lYTeRvdv8kLkkW_NQM2Z-210" edge="1">
          <mxGeometry relative="1" as="geometry">
            <Array as="points">
              <mxPoint x="1070" y="520" />
            </Array>
          </mxGeometry>
        </mxCell>
        <mxCell id="lYTeRvdv8kLkkW_NQM2Z-225" style="edgeStyle=orthogonalEdgeStyle;rounded=0;orthogonalLoop=1;jettySize=auto;html=1;entryX=0;entryY=0.5;entryDx=0;entryDy=0;endArrow=none;endFill=0;" parent="1" source="lYTeRvdv8kLkkW_NQM2Z-175" target="lYTeRvdv8kLkkW_NQM2Z-217" edge="1">
          <mxGeometry relative="1" as="geometry">
            <Array as="points">
              <mxPoint x="1120" y="520" />
            </Array>
          </mxGeometry>
        </mxCell>
        <mxCell id="lYTeRvdv8kLkkW_NQM2Z-235" style="edgeStyle=orthogonalEdgeStyle;rounded=0;orthogonalLoop=1;jettySize=auto;html=1;entryX=1;entryY=0.5;entryDx=0;entryDy=0;endArrow=none;endFill=0;" parent="1" source="lYTeRvdv8kLkkW_NQM2Z-175" target="lYTeRvdv8kLkkW_NQM2Z-234" edge="1">
          <mxGeometry relative="1" as="geometry">
            <Array as="points">
              <mxPoint x="1090" y="420" />
            </Array>
          </mxGeometry>
        </mxCell>
        <mxCell id="lYTeRvdv8kLkkW_NQM2Z-237" style="edgeStyle=orthogonalEdgeStyle;rounded=0;orthogonalLoop=1;jettySize=auto;html=1;entryX=0.5;entryY=1;entryDx=0;entryDy=0;endArrow=none;endFill=0;" parent="1" source="lYTeRvdv8kLkkW_NQM2Z-175" target="lYTeRvdv8kLkkW_NQM2Z-247" edge="1">
          <mxGeometry relative="1" as="geometry">
            <mxPoint x="1100" y="395" as="targetPoint" />
          </mxGeometry>
        </mxCell>
        <mxCell id="lYTeRvdv8kLkkW_NQM2Z-175" value="Factura" style="rounded=1;arcSize=10;whiteSpace=wrap;html=1;align=center;" parent="1" vertex="1">
          <mxGeometry x="1050" y="600" width="100" height="40" as="geometry" />
        </mxCell>
        <mxCell id="lYTeRvdv8kLkkW_NQM2Z-229" style="edgeStyle=orthogonalEdgeStyle;rounded=0;orthogonalLoop=1;jettySize=auto;html=1;entryX=0.5;entryY=0;entryDx=0;entryDy=0;endArrow=none;endFill=0;" parent="1" source="lYTeRvdv8kLkkW_NQM2Z-182" target="lYTeRvdv8kLkkW_NQM2Z-228" edge="1">
          <mxGeometry relative="1" as="geometry" />
        </mxCell>
        <mxCell id="lYTeRvdv8kLkkW_NQM2Z-182" value="Genera" style="shape=rhombus;perimeter=rhombusPerimeter;whiteSpace=wrap;html=1;align=center;" parent="1" vertex="1">
          <mxGeometry x="1040" y="700" width="120" height="60" as="geometry" />
        </mxCell>
        <mxCell id="lYTeRvdv8kLkkW_NQM2Z-198" style="edgeStyle=orthogonalEdgeStyle;rounded=0;orthogonalLoop=1;jettySize=auto;html=1;entryX=0;entryY=0.5;entryDx=0;entryDy=0;endArrow=none;endFill=0;strokeColor=default;" parent="1" source="lYTeRvdv8kLkkW_NQM2Z-185" target="lYTeRvdv8kLkkW_NQM2Z-187" edge="1">
          <mxGeometry relative="1" as="geometry" />
        </mxCell>
        <mxCell id="lYTeRvdv8kLkkW_NQM2Z-266" style="edgeStyle=orthogonalEdgeStyle;rounded=0;orthogonalLoop=1;jettySize=auto;html=1;entryX=1;entryY=0.5;entryDx=0;entryDy=0;strokeColor=default;endArrow=none;endFill=0;" parent="1" source="lYTeRvdv8kLkkW_NQM2Z-185" target="lYTeRvdv8kLkkW_NQM2Z-256" edge="1">
          <mxGeometry relative="1" as="geometry">
            <Array as="points">
              <mxPoint x="240" y="560" />
            </Array>
          </mxGeometry>
        </mxCell>
        <mxCell id="lYTeRvdv8kLkkW_NQM2Z-267" style="edgeStyle=orthogonalEdgeStyle;rounded=0;orthogonalLoop=1;jettySize=auto;html=1;entryX=0;entryY=0.5;entryDx=0;entryDy=0;strokeColor=default;endArrow=none;endFill=0;" parent="1" source="lYTeRvdv8kLkkW_NQM2Z-185" target="lYTeRvdv8kLkkW_NQM2Z-257" edge="1">
          <mxGeometry relative="1" as="geometry">
            <Array as="points">
              <mxPoint x="260" y="560" />
            </Array>
          </mxGeometry>
        </mxCell>
        <mxCell id="ylq0Wh5do1DhNVSN07a9-79" style="edgeStyle=orthogonalEdgeStyle;rounded=0;orthogonalLoop=1;jettySize=auto;html=1;exitX=0.5;exitY=1;exitDx=0;exitDy=0;entryX=0.5;entryY=0;entryDx=0;entryDy=0;strokeColor=default;endArrow=none;endFill=0;" parent="1" source="lYTeRvdv8kLkkW_NQM2Z-185" target="ylq0Wh5do1DhNVSN07a9-77" edge="1">
          <mxGeometry relative="1" as="geometry" />
        </mxCell>
        <mxCell id="lYTeRvdv8kLkkW_NQM2Z-185" value="Control de Stock" style="rounded=1;arcSize=10;whiteSpace=wrap;html=1;align=center;strokeColor=default;" parent="1" vertex="1">
          <mxGeometry x="200" y="600" width="100" height="40" as="geometry" />
        </mxCell>
        <mxCell id="lYTeRvdv8kLkkW_NQM2Z-199" style="edgeStyle=orthogonalEdgeStyle;rounded=0;orthogonalLoop=1;jettySize=auto;html=1;entryX=0;entryY=0.5;entryDx=0;entryDy=0;endArrow=none;endFill=0;" parent="1" source="lYTeRvdv8kLkkW_NQM2Z-187" target="lYTeRvdv8kLkkW_NQM2Z-133" edge="1">
          <mxGeometry relative="1" as="geometry" />
        </mxCell>
        <mxCell id="lYTeRvdv8kLkkW_NQM2Z-187" value="Tiene" style="shape=rhombus;perimeter=rhombusPerimeter;whiteSpace=wrap;html=1;align=center;" parent="1" vertex="1">
          <mxGeometry x="410" y="590" width="120" height="60" as="geometry" />
        </mxCell>
        <mxCell id="lYTeRvdv8kLkkW_NQM2Z-210" value="ID_Factura" style="ellipse;whiteSpace=wrap;html=1;align=center;fontStyle=4;" parent="1" vertex="1">
          <mxGeometry x="950" y="500" width="100" height="40" as="geometry" />
        </mxCell>
        <mxCell id="lYTeRvdv8kLkkW_NQM2Z-217" value="PrecioTotalCuenta" style="ellipse;whiteSpace=wrap;html=1;align=center;" parent="1" vertex="1">
          <mxGeometry x="1141" y="500" width="100" height="40" as="geometry" />
        </mxCell>
        <mxCell id="lYTeRvdv8kLkkW_NQM2Z-218" value="FechaRealización" style="ellipse;whiteSpace=wrap;html=1;align=center;" parent="1" vertex="1">
          <mxGeometry x="950" y="450" width="100" height="40" as="geometry" />
        </mxCell>
        <mxCell id="lYTeRvdv8kLkkW_NQM2Z-219" value="MetodoPago" style="ellipse;whiteSpace=wrap;html=1;align=center;" parent="1" vertex="1">
          <mxGeometry x="1141" y="450" width="100" height="40" as="geometry" />
        </mxCell>
        <mxCell id="lYTeRvdv8kLkkW_NQM2Z-269" style="edgeStyle=orthogonalEdgeStyle;rounded=0;orthogonalLoop=1;jettySize=auto;html=1;entryX=0.5;entryY=0;entryDx=0;entryDy=0;" parent="1" source="lYTeRvdv8kLkkW_NQM2Z-228" target="lYTeRvdv8kLkkW_NQM2Z-241" edge="1">
          <mxGeometry relative="1" as="geometry" />
        </mxCell>
        <mxCell id="lYTeRvdv8kLkkW_NQM2Z-270" style="edgeStyle=orthogonalEdgeStyle;rounded=0;orthogonalLoop=1;jettySize=auto;html=1;entryX=1;entryY=0.5;entryDx=0;entryDy=0;" parent="1" source="lYTeRvdv8kLkkW_NQM2Z-228" target="lYTeRvdv8kLkkW_NQM2Z-242" edge="1">
          <mxGeometry relative="1" as="geometry">
            <Array as="points">
              <mxPoint x="1090" y="900" />
            </Array>
          </mxGeometry>
        </mxCell>
        <mxCell id="lYTeRvdv8kLkkW_NQM2Z-271" style="edgeStyle=orthogonalEdgeStyle;rounded=0;orthogonalLoop=1;jettySize=auto;html=1;entryX=0;entryY=0.5;entryDx=0;entryDy=0;" parent="1" source="lYTeRvdv8kLkkW_NQM2Z-228" target="lYTeRvdv8kLkkW_NQM2Z-232" edge="1">
          <mxGeometry relative="1" as="geometry">
            <Array as="points">
              <mxPoint x="1110" y="900" />
            </Array>
          </mxGeometry>
        </mxCell>
        <mxCell id="lYTeRvdv8kLkkW_NQM2Z-228" value="Recibo" style="rounded=1;arcSize=10;whiteSpace=wrap;html=1;align=center;" parent="1" vertex="1">
          <mxGeometry x="1050" y="820" width="100" height="40" as="geometry" />
        </mxCell>
        <mxCell id="lYTeRvdv8kLkkW_NQM2Z-232" value="Archivo" style="ellipse;whiteSpace=wrap;html=1;align=center;" parent="1" vertex="1">
          <mxGeometry x="1141" y="880" width="100" height="40" as="geometry" />
        </mxCell>
        <mxCell id="lYTeRvdv8kLkkW_NQM2Z-234" value="&lt;span style=&quot;border-bottom: 1px dotted&quot;&gt;ID_Recibo&lt;/span&gt;" style="ellipse;whiteSpace=wrap;html=1;align=center;" parent="1" vertex="1">
          <mxGeometry x="950" y="400" width="100" height="40" as="geometry" />
        </mxCell>
        <mxCell id="lYTeRvdv8kLkkW_NQM2Z-241" value="&lt;span style=&quot;border-bottom: 1px dotted&quot;&gt;ID_Factura&lt;/span&gt;" style="ellipse;whiteSpace=wrap;html=1;align=center;" parent="1" vertex="1">
          <mxGeometry x="1050" y="930" width="100" height="40" as="geometry" />
        </mxCell>
        <mxCell id="lYTeRvdv8kLkkW_NQM2Z-242" value="&lt;u&gt;ID_Recibo&lt;/u&gt;" style="ellipse;whiteSpace=wrap;html=1;align=center;" parent="1" vertex="1">
          <mxGeometry x="950" y="880" width="100" height="40" as="geometry" />
        </mxCell>
        <mxCell id="lYTeRvdv8kLkkW_NQM2Z-252" style="edgeStyle=orthogonalEdgeStyle;rounded=0;orthogonalLoop=1;jettySize=auto;html=1;entryX=0.5;entryY=1;entryDx=0;entryDy=0;endArrow=none;endFill=0;" parent="1" source="lYTeRvdv8kLkkW_NQM2Z-247" target="lYTeRvdv8kLkkW_NQM2Z-251" edge="1">
          <mxGeometry relative="1" as="geometry" />
        </mxCell>
        <mxCell id="lYTeRvdv8kLkkW_NQM2Z-253" style="edgeStyle=orthogonalEdgeStyle;rounded=0;orthogonalLoop=1;jettySize=auto;html=1;entryX=1;entryY=0.5;entryDx=0;entryDy=0;endArrow=none;endFill=0;" parent="1" source="lYTeRvdv8kLkkW_NQM2Z-247" target="lYTeRvdv8kLkkW_NQM2Z-249" edge="1">
          <mxGeometry relative="1" as="geometry">
            <Array as="points">
              <mxPoint x="1090" y="330" />
            </Array>
          </mxGeometry>
        </mxCell>
        <mxCell id="lYTeRvdv8kLkkW_NQM2Z-254" style="edgeStyle=orthogonalEdgeStyle;rounded=0;orthogonalLoop=1;jettySize=auto;html=1;entryX=0;entryY=0.5;entryDx=0;entryDy=0;endArrow=none;endFill=0;" parent="1" source="lYTeRvdv8kLkkW_NQM2Z-247" target="lYTeRvdv8kLkkW_NQM2Z-250" edge="1">
          <mxGeometry relative="1" as="geometry">
            <Array as="points">
              <mxPoint x="1110" y="330" />
            </Array>
          </mxGeometry>
        </mxCell>
        <mxCell id="lYTeRvdv8kLkkW_NQM2Z-247" value="Producto" style="ellipse;shape=doubleEllipse;margin=3;whiteSpace=wrap;html=1;align=center;" parent="1" vertex="1">
          <mxGeometry x="1050" y="360" width="100" height="40" as="geometry" />
        </mxCell>
        <mxCell id="lYTeRvdv8kLkkW_NQM2Z-249" value="CantidadProducto" style="ellipse;whiteSpace=wrap;html=1;align=center;" parent="1" vertex="1">
          <mxGeometry x="950" y="310" width="100" height="40" as="geometry" />
        </mxCell>
        <mxCell id="lYTeRvdv8kLkkW_NQM2Z-250" value="&lt;span style=&quot;border-bottom: 1px dotted&quot;&gt;CódigoProducto&lt;/span&gt;" style="ellipse;whiteSpace=wrap;html=1;align=center;" parent="1" vertex="1">
          <mxGeometry x="1141" y="310" width="100" height="40" as="geometry" />
        </mxCell>
        <mxCell id="lYTeRvdv8kLkkW_NQM2Z-251" value="PrecioUnitario&lt;br&gt;Producto" style="ellipse;whiteSpace=wrap;html=1;align=center;" parent="1" vertex="1">
          <mxGeometry x="1035" y="240" width="130" height="50" as="geometry" />
        </mxCell>
        <mxCell id="lYTeRvdv8kLkkW_NQM2Z-256" value="ID_ControlStock" style="ellipse;whiteSpace=wrap;html=1;align=center;fontStyle=4;" parent="1" vertex="1">
          <mxGeometry x="110" y="540" width="100" height="40" as="geometry" />
        </mxCell>
        <mxCell id="lYTeRvdv8kLkkW_NQM2Z-257" value="&lt;span style=&quot;border-bottom: 1px dotted&quot;&gt;CódigoProducto&lt;/span&gt;" style="ellipse;whiteSpace=wrap;html=1;align=center;" parent="1" vertex="1">
          <mxGeometry x="290" y="540" width="100" height="40" as="geometry" />
        </mxCell>
        <mxCell id="lYTeRvdv8kLkkW_NQM2Z-263" style="edgeStyle=orthogonalEdgeStyle;rounded=0;orthogonalLoop=1;jettySize=auto;html=1;entryX=0.5;entryY=1;entryDx=0;entryDy=0;endArrow=none;endFill=0;" parent="1" source="lYTeRvdv8kLkkW_NQM2Z-260" target="lYTeRvdv8kLkkW_NQM2Z-141" edge="1">
          <mxGeometry relative="1" as="geometry" />
        </mxCell>
        <mxCell id="lYTeRvdv8kLkkW_NQM2Z-260" value="Tiene" style="shape=rhombus;perimeter=rhombusPerimeter;whiteSpace=wrap;html=1;align=center;" parent="1" vertex="1">
          <mxGeometry x="633" y="460" width="120" height="60" as="geometry" />
        </mxCell>
        <mxCell id="ylq0Wh5do1DhNVSN07a9-13" style="edgeStyle=orthogonalEdgeStyle;rounded=0;orthogonalLoop=1;jettySize=auto;html=1;exitX=1;exitY=0.5;exitDx=0;exitDy=0;entryX=1;entryY=0.5;entryDx=0;entryDy=0;" parent="1" source="Y9Ebi7SMnBBEPp_Op19L-72" target="ylq0Wh5do1DhNVSN07a9-7" edge="1">
          <mxGeometry relative="1" as="geometry" />
        </mxCell>
        <mxCell id="ylq0Wh5do1DhNVSN07a9-64" value="Control deStock" style="shape=table;startSize=30;container=1;collapsible=1;childLayout=tableLayout;fixedRows=1;rowLines=0;fontStyle=1;align=center;resizeLast=1;html=1;whiteSpace=wrap;" parent="1" vertex="1">
          <mxGeometry x="1879.94" y="850" width="180" height="120" as="geometry" />
        </mxCell>
        <mxCell id="ylq0Wh5do1DhNVSN07a9-65" value="" style="shape=tableRow;horizontal=0;startSize=0;swimlaneHead=0;swimlaneBody=0;fillColor=none;collapsible=0;dropTarget=0;points=[[0,0.5],[1,0.5]];portConstraint=eastwest;top=0;left=0;right=0;bottom=0;html=1;" parent="ylq0Wh5do1DhNVSN07a9-64" vertex="1">
          <mxGeometry y="30" width="180" height="30" as="geometry" />
        </mxCell>
        <mxCell id="ylq0Wh5do1DhNVSN07a9-66" value="PK" style="shape=partialRectangle;connectable=0;fillColor=none;top=0;left=0;bottom=0;right=0;fontStyle=1;overflow=hidden;html=1;whiteSpace=wrap;" parent="ylq0Wh5do1DhNVSN07a9-65" vertex="1">
          <mxGeometry width="41.5" height="30" as="geometry">
            <mxRectangle width="41.5" height="30" as="alternateBounds" />
          </mxGeometry>
        </mxCell>
        <mxCell id="ylq0Wh5do1DhNVSN07a9-67" value="ID_ControlStock" style="shape=partialRectangle;connectable=0;fillColor=none;top=0;left=0;bottom=0;right=0;align=left;spacingLeft=6;fontStyle=5;overflow=hidden;html=1;whiteSpace=wrap;" parent="ylq0Wh5do1DhNVSN07a9-65" vertex="1">
          <mxGeometry x="41.5" width="138.5" height="30" as="geometry">
            <mxRectangle width="138.5" height="30" as="alternateBounds" />
          </mxGeometry>
        </mxCell>
        <mxCell id="ylq0Wh5do1DhNVSN07a9-68" value="" style="shape=tableRow;horizontal=0;startSize=0;swimlaneHead=0;swimlaneBody=0;fillColor=none;collapsible=0;dropTarget=0;points=[[0,0.5],[1,0.5]];portConstraint=eastwest;top=0;left=0;right=0;bottom=1;html=1;" parent="ylq0Wh5do1DhNVSN07a9-64" vertex="1">
          <mxGeometry y="60" width="180" height="30" as="geometry" />
        </mxCell>
        <mxCell id="ylq0Wh5do1DhNVSN07a9-69" value="FK" style="shape=partialRectangle;connectable=0;fillColor=none;top=0;left=0;bottom=0;right=0;fontStyle=1;overflow=hidden;html=1;whiteSpace=wrap;" parent="ylq0Wh5do1DhNVSN07a9-68" vertex="1">
          <mxGeometry width="41.5" height="30" as="geometry">
            <mxRectangle width="41.5" height="30" as="alternateBounds" />
          </mxGeometry>
        </mxCell>
        <mxCell id="ylq0Wh5do1DhNVSN07a9-70" value="CódigoProducto" style="shape=partialRectangle;connectable=0;fillColor=none;top=0;left=0;bottom=0;right=0;align=left;spacingLeft=6;fontStyle=5;overflow=hidden;html=1;whiteSpace=wrap;" parent="ylq0Wh5do1DhNVSN07a9-68" vertex="1">
          <mxGeometry x="41.5" width="138.5" height="30" as="geometry">
            <mxRectangle width="138.5" height="30" as="alternateBounds" />
          </mxGeometry>
        </mxCell>
        <mxCell id="ylq0Wh5do1DhNVSN07a9-71" value="" style="shape=tableRow;horizontal=0;startSize=0;swimlaneHead=0;swimlaneBody=0;fillColor=none;collapsible=0;dropTarget=0;points=[[0,0.5],[1,0.5]];portConstraint=eastwest;top=0;left=0;right=0;bottom=0;html=1;" parent="ylq0Wh5do1DhNVSN07a9-64" vertex="1">
          <mxGeometry y="90" width="180" height="30" as="geometry" />
        </mxCell>
        <mxCell id="ylq0Wh5do1DhNVSN07a9-72" value="" style="shape=partialRectangle;connectable=0;fillColor=none;top=0;left=0;bottom=0;right=0;editable=1;overflow=hidden;html=1;whiteSpace=wrap;" parent="ylq0Wh5do1DhNVSN07a9-71" vertex="1">
          <mxGeometry width="41.5" height="30" as="geometry">
            <mxRectangle width="41.5" height="30" as="alternateBounds" />
          </mxGeometry>
        </mxCell>
        <mxCell id="ylq0Wh5do1DhNVSN07a9-73" value="ID_EstadoReposición" style="shape=partialRectangle;connectable=0;fillColor=none;top=0;left=0;bottom=0;right=0;align=left;spacingLeft=6;overflow=hidden;html=1;whiteSpace=wrap;" parent="ylq0Wh5do1DhNVSN07a9-71" vertex="1">
          <mxGeometry x="41.5" width="138.5" height="30" as="geometry">
            <mxRectangle width="138.5" height="30" as="alternateBounds" />
          </mxGeometry>
        </mxCell>
        <mxCell id="ylq0Wh5do1DhNVSN07a9-77" value="ID_EstadoReposición" style="ellipse;whiteSpace=wrap;html=1;align=center;" parent="1" vertex="1">
          <mxGeometry x="190" y="670" width="120" height="40" as="geometry" />
        </mxCell>
        <mxCell id="ylq0Wh5do1DhNVSN07a9-78" value="0 = NO repuesto&lt;br&gt;1 = Ya repuesto" style="text;html=1;align=center;verticalAlign=middle;resizable=0;points=[];autosize=1;strokeColor=none;fillColor=none;" parent="1" vertex="1">
          <mxGeometry x="310" y="670" width="110" height="40" as="geometry" />
        </mxCell>
        <mxCell id="ylq0Wh5do1DhNVSN07a9-82" style="edgeStyle=orthogonalEdgeStyle;shape=connector;rounded=0;orthogonalLoop=1;jettySize=auto;html=1;exitX=1;exitY=0.5;exitDx=0;exitDy=0;entryX=0.375;entryY=1.013;entryDx=0;entryDy=0;entryPerimeter=0;labelBackgroundColor=default;strokeColor=default;fontFamily=Helvetica;fontSize=11;fontColor=default;endArrow=none;endFill=0;" parent="1" source="ylq0Wh5do1DhNVSN07a9-81" target="lYTeRvdv8kLkkW_NQM2Z-133" edge="1">
          <mxGeometry relative="1" as="geometry" />
        </mxCell>
        <mxCell id="ylq0Wh5do1DhNVSN07a9-81" value="&lt;span style=&quot;border-bottom: 1px dotted&quot;&gt;ID_ControlStock&lt;/span&gt;" style="ellipse;whiteSpace=wrap;html=1;align=center;" parent="1" vertex="1">
          <mxGeometry x="543" y="660" width="100" height="40" as="geometry" />
        </mxCell>
        <mxCell id="ylq0Wh5do1DhNVSN07a9-83" style="edgeStyle=orthogonalEdgeStyle;shape=connector;rounded=0;orthogonalLoop=1;jettySize=auto;html=1;exitX=0;exitY=0.5;exitDx=0;exitDy=0;entryX=1;entryY=0.5;entryDx=0;entryDy=0;labelBackgroundColor=default;strokeColor=default;fontFamily=Helvetica;fontSize=11;fontColor=default;endArrow=classic;endFill=1;" parent="1" source="ylq0Wh5do1DhNVSN07a9-65" target="ylq0Wh5do1DhNVSN07a9-4" edge="1">
          <mxGeometry relative="1" as="geometry">
            <Array as="points">
              <mxPoint x="1800" y="895" />
              <mxPoint x="1800" y="740" />
            </Array>
          </mxGeometry>
        </mxCell>
        <mxCell id="ylq0Wh5do1DhNVSN07a9-84" style="edgeStyle=orthogonalEdgeStyle;shape=connector;rounded=0;orthogonalLoop=1;jettySize=auto;html=1;exitX=0;exitY=0.5;exitDx=0;exitDy=0;entryX=1;entryY=0.5;entryDx=0;entryDy=0;labelBackgroundColor=default;strokeColor=default;fontFamily=Helvetica;fontSize=11;fontColor=default;endArrow=none;endFill=0;startArrow=classic;startFill=1;" parent="1" source="ylq0Wh5do1DhNVSN07a9-68" target="Y9Ebi7SMnBBEPp_Op19L-48" edge="1">
          <mxGeometry relative="1" as="geometry">
            <Array as="points">
              <mxPoint x="1830" y="925" />
              <mxPoint x="1830" y="690" />
              <mxPoint x="1740" y="690" />
            </Array>
          </mxGeometry>
        </mxCell>
      </root>
    </mxGraphModel>
  </diagram>
</mxfile>
